{
    "asset": {
        "generator": "Khronos glTF Blender I/O v3.4.49",
        "version": "2.0"
    },
    "scene": 0,
    "scenes": [
        {
            "name": "Scene",
            "nodes": [
                0
            ]
        }
    ],
    "nodes": [
        {
            "mesh": 0,
            "name": "hel1"
        }
    ],
    "materials": [
        {
            "doubleSided": true,
            "name": "Body",
            "pbrMetallicRoughness": {
                "baseColorTexture": {
                    "index": 0
                },
                "metallicFactor": 0.4000000059604645,
                "roughnessFactor": 0.6000000238418579
            }
        }
    ],
    "meshes": [
        {
            "name": "Propeller_1_Body_0",
            "primitives": [
                {
                    "attributes": {
                        "POSITION": 0,
                        "TEXCOORD_0": 1,
                        "NORMAL": 2
                    },
                    "indices": 3,
                    "material": 0
                }
            ]
        }
    ],
    "textures": [
        {
            "sampler": 0,
            "source": 0
        }
    ],
    "images": [
        {
            "mimeType": "image/png",
            "name": "baseColorPlaneHelix",
            "uri": "baseColorPlane.png"
        }
    ],
    "accessors": [
        {
            "bufferView": 0,
            "componentType": 5126,
            "count": 607,
            "max": [
                0.8020412921905518,
                1.3440628051757812,
                0.23746071755886078
            ],
            "min": [
                -1.5254876613616943,
                -1.343536138534546,
                -0.07766596227884293
            ],
            "type": "VEC3"
        },
        {
            "bufferView": 1,
            "componentType": 5126,
            "count": 607,
            "type": "VEC2"
        },
        {
            "bufferView": 2,
            "componentType": 5126,
            "count": 607,
            "type": "VEC3"
        },
        {
            "bufferView": 3,
            "componentType": 5123,
            "count": 687,
            "type": "SCALAR"
        }
    ],
    "bufferViews": [
        {
            "buffer": 0,
            "byteLength": 7284,
            "byteOffset": 0,
            "target": 34962
        },
        {
            "buffer": 0,
            "byteLength": 4856,
            "byteOffset": 7284,
            "target": 34962
        },
        {
            "buffer": 0,
            "byteLength": 7284,
            "byteOffset": 12140,
            "target": 34962
        },
        {
            "buffer": 0,
            "byteLength": 1374,
            "byteOffset": 19424,
            "target": 34963
        }
    ],
    "samplers": [
        {
            "magFilter": 9729,
            "minFilter": 9987
        }
    ],
    "buffers": [
        {
            "byteLength": 20800,
            "uri": "helix.bin"
        }
    ]
}