{
    "asset": {
        "generator": "Khronos glTF Blender I/O v3.4.49",
        "version": "2.0"
    },
    "scene": 0,
    "scenes": [
        {
            "name": "Scene",
            "nodes": [
                0,
                1,
                2,
                3,
                4
            ]
        }
    ],
    "nodes": [
        {
            "mesh": 0,
            "name": "body"
        },
        {
            "mesh": 1,
            "name": "couleur"
        },
        {
            "mesh": 2,
            "name": "glass"
        },
        {
            "mesh": 3,
            "name": "details"
        },
        {
            "mesh": 4,
            "name": "roues"
        }
    ],
    "materials": [
        {
            "doubleSided": true,
            "name": "Body",
            "pbrMetallicRoughness": {
                "baseColorTexture": {
                    "index": 0
                },
                "metallicFactor": 0.4000000059604645,
                "roughnessFactor": 0.6000000238418579
            }
        },
        {
            "doubleSided": true,
            "name": "material",
            "pbrMetallicRoughness": {
                "baseColorTexture": {
                    "index": 1
                },
                "metallicFactor": 0,
                "roughnessFactor": 0.6000000238418579
            }
        },
        {
            "name": "Glass",
            "pbrMetallicRoughness": {
                "baseColorTexture": {
                    "index": 2
                },
                "metallicFactor": 0,
                "roughnessFactor": 0.5299999713897705
            }
        },
        {
            "doubleSided": true,
            "name": "Cube_1_3__0",
            "pbrMetallicRoughness": {
                "baseColorTexture": {
                    "index": 3
                },
                "metallicFactor": 0,
                "roughnessFactor": 0.6000000238418579
            }
        },
        {
            "doubleSided": true,
            "name": "material_3",
            "pbrMetallicRoughness": {
                "baseColorTexture": {
                    "index": 4
                },
                "metallicFactor": 0,
                "roughnessFactor": 0.6000000238418579
            }
        }
    ],
    "meshes": [
        {
            "name": "Cube_1_3_Body_0",
            "primitives": [
                {
                    "attributes": {
                        "POSITION": 0,
                        "TEXCOORD_0": 1,
                        "NORMAL": 2
                    },
                    "indices": 3,
                    "material": 0
                }
            ]
        },
        {
            "name": "Cube_1_3_Red_0",
            "primitives": [
                {
                    "attributes": {
                        "POSITION": 4,
                        "TEXCOORD_0": 5,
                        "NORMAL": 6
                    },
                    "indices": 7,
                    "material": 1
                }
            ]
        },
        {
            "name": "Cube_1_3_Glass_0",
            "primitives": [
                {
                    "attributes": {
                        "POSITION": 8,
                        "TEXCOORD_0": 9,
                        "NORMAL": 10
                    },
                    "indices": 11,
                    "material": 2
                }
            ]
        },
        {
            "name": "Cube_1_3__0",
            "primitives": [
                {
                    "attributes": {
                        "POSITION": 12,
                        "TEXCOORD_0": 13,
                        "NORMAL": 14
                    },
                    "indices": 15,
                    "material": 3
                }
            ]
        },
        {
            "name": "Wheel_2_Gum_0.002",
            "primitives": [
                {
                    "attributes": {
                        "POSITION": 16,
                        "TEXCOORD_0": 17,
                        "NORMAL": 18
                    },
                    "indices": 19,
                    "material": 4
                }
            ]
        }
    ],
    "textures": [
        {
            "sampler": 0,
            "source": 0
        },
        {
            "sampler": 0,
            "source": 0
        },
        {
            "sampler": 0,
            "source": 0
        },
        {
            "sampler": 0,
            "source": 0
        },
        {
            "sampler": 0,
            "source": 0
        }
    ],
    "images": [
        {
            "mimeType": "image/png",
            "name": "baseColorPlaneA",
            "uri": "baseColorPlaneA.png"
        }
    ],
    "accessors": [
        {
            "bufferView": 0,
            "componentType": 5126,
            "count": 1307,
            "max": [
                6.39637565612793,
                3.1549909114837646,
                7.4517340660095215
            ],
            "min": [
                -6.374666213989258,
                -0.5610407590866089,
                -4.650366306304932
            ],
            "type": "VEC3"
        },
        {
            "bufferView": 1,
            "componentType": 5126,
            "count": 1307,
            "type": "VEC2"
        },
        {
            "bufferView": 2,
            "componentType": 5126,
            "count": 1307,
            "type": "VEC3"
        },
        {
            "bufferView": 3,
            "componentType": 5123,
            "count": 1728,
            "type": "SCALAR"
        },
        {
            "bufferView": 4,
            "componentType": 5126,
            "count": 252,
            "max": [
                6.64931058883667,
                3.1549909114837646,
                7.4517340660095215
            ],
            "min": [
                -6.627601623535156,
                -0.08224575966596603,
                -4.650366306304932
            ],
            "type": "VEC3"
        },
        {
            "bufferView": 5,
            "componentType": 5126,
            "count": 252,
            "type": "VEC2"
        },
        {
            "bufferView": 6,
            "componentType": 5126,
            "count": 252,
            "type": "VEC3"
        },
        {
            "bufferView": 7,
            "componentType": 5123,
            "count": 420,
            "type": "SCALAR"
        },
        {
            "bufferView": 8,
            "componentType": 5126,
            "count": 16,
            "max": [
                1.1132460832595825,
                2.9785494804382324,
                1.3459373712539673
            ],
            "min": [
                -1.0915367603302002,
                1.4586479663848877,
                -1.998968243598938
            ],
            "type": "VEC3"
        },
        {
            "bufferView": 9,
            "componentType": 5126,
            "count": 16,
            "type": "VEC2"
        },
        {
            "bufferView": 10,
            "componentType": 5126,
            "count": 16,
            "type": "VEC3"
        },
        {
            "bufferView": 11,
            "componentType": 5123,
            "count": 24,
            "type": "SCALAR"
        },
        {
            "bufferView": 12,
            "componentType": 5126,
            "count": 120,
            "max": [
                5.502326488494873,
                0.8333061337471008,
                1.383070945739746
            ],
            "min": [
                -5.480617046356201,
                0.3253471851348877,
                -2.14174222946167
            ],
            "type": "VEC3"
        },
        {
            "bufferView": 13,
            "componentType": 5126,
            "count": 120,
            "type": "VEC2"
        },
        {
            "bufferView": 14,
            "componentType": 5126,
            "count": 120,
            "type": "VEC3"
        },
        {
            "bufferView": 15,
            "componentType": 5123,
            "count": 180,
            "type": "SCALAR"
        },
        {
            "bufferView": 16,
            "componentType": 5126,
            "count": 1728,
            "max": [
                1.8268274068832397,
                0.3590703308582306,
                6.411397933959961
            ],
            "min": [
                -1.7881468534469604,
                -0.6946701407432556,
                -2.3813207149505615
            ],
            "type": "VEC3"
        },
        {
            "bufferView": 17,
            "componentType": 5126,
            "count": 1728,
            "type": "VEC2"
        },
        {
            "bufferView": 18,
            "componentType": 5126,
            "count": 1728,
            "type": "VEC3"
        },
        {
            "bufferView": 19,
            "componentType": 5123,
            "count": 1728,
            "type": "SCALAR"
        }
    ],
    "bufferViews": [
        {
            "buffer": 0,
            "byteLength": 15684,
            "byteOffset": 0,
            "target": 34962
        },
        {
            "buffer": 0,
            "byteLength": 10456,
            "byteOffset": 15684,
            "target": 34962
        },
        {
            "buffer": 0,
            "byteLength": 15684,
            "byteOffset": 26140,
            "target": 34962
        },
        {
            "buffer": 0,
            "byteLength": 3456,
            "byteOffset": 41824,
            "target": 34963
        },
        {
            "buffer": 0,
            "byteLength": 3024,
            "byteOffset": 45280,
            "target": 34962
        },
        {
            "buffer": 0,
            "byteLength": 2016,
            "byteOffset": 48304,
            "target": 34962
        },
        {
            "buffer": 0,
            "byteLength": 3024,
            "byteOffset": 50320,
            "target": 34962
        },
        {
            "buffer": 0,
            "byteLength": 840,
            "byteOffset": 53344,
            "target": 34963
        },
        {
            "buffer": 0,
            "byteLength": 192,
            "byteOffset": 54184,
            "target": 34962
        },
        {
            "buffer": 0,
            "byteLength": 128,
            "byteOffset": 54376,
            "target": 34962
        },
        {
            "buffer": 0,
            "byteLength": 192,
            "byteOffset": 54504,
            "target": 34962
        },
        {
            "buffer": 0,
            "byteLength": 48,
            "byteOffset": 54696,
            "target": 34963
        },
        {
            "buffer": 0,
            "byteLength": 1440,
            "byteOffset": 54744,
            "target": 34962
        },
        {
            "buffer": 0,
            "byteLength": 960,
            "byteOffset": 56184,
            "target": 34962
        },
        {
            "buffer": 0,
            "byteLength": 1440,
            "byteOffset": 57144,
            "target": 34962
        },
        {
            "buffer": 0,
            "byteLength": 360,
            "byteOffset": 58584,
            "target": 34963
        },
        {
            "buffer": 0,
            "byteLength": 20736,
            "byteOffset": 58944,
            "target": 34962
        },
        {
            "buffer": 0,
            "byteLength": 13824,
            "byteOffset": 79680,
            "target": 34962
        },
        {
            "buffer": 0,
            "byteLength": 20736,
            "byteOffset": 93504,
            "target": 34962
        },
        {
            "buffer": 0,
            "byteLength": 3456,
            "byteOffset": 114240,
            "target": 34963
        }
    ],
    "samplers": [
        {
            "magFilter": 9729,
            "minFilter": 9987
        }
    ],
    "buffers": [
        {
            "byteLength": 117696,
            "uri": "plane.bin"
        }
    ]
}